<svg xmlns="http://www.w3.org/2000/svg" width="263" height="100" viewBox="0 0 263 100">
  <g fill="none" fill-rule="evenodd">
    <rect width="263" height="100" fill="#FFF"/>
    <g transform="translate(35 26)">
      <path fill="#211E1E" fill-rule="nonzero" d="M164.829082,48 L0,48 L1.84877009,43.0518046 C3.67658688,38.1597029 13.4821621,11.9449253 14.4113823,9.81753707 C15.5042049,7.17720064 17.2989784,4.49296562 19.534588,2.85901359 C22.5728893,0.729997117 25.9230802,-0.0292629489 29.3691759,0.00325310361 L29.8140426,0 L194,0 L192.125444,4.96120277 C188.688213,14.0568705 180.304273,36.2298516 179.428245,38.4279657 C178.093655,41.8543878 176.129625,43.8842262 173.937543,45.4084368 C171.984802,46.7277934 169.123799,48 164.829082,48"/>
      <path fill="#EB1928" fill-rule="nonzero" d="M192,2 L191.055995,4.47584026 C187.618041,13.4883545 179.230939,35.4637647 178.353906,37.6429256 C177.169459,40.6540834 175.467824,42.3970886 173.518509,43.7402208 C171.828986,44.871319 169.319703,46 165.412984,46 L3,46 L3.93190118,43.5298015 C5.75697438,38.6901811 15.5439519,12.76358 16.4710115,10.6593987 C17.4835966,8.22709133 19.0996978,5.8729849 20.9933526,4.50163868 C23.6631888,2.64979804 26.619452,1.97097699 29.7846889,2.00161147 L30.2470083,2 L192,2 Z"/>
      <path fill="#FFF" fill-rule="nonzero" d="M183,4 C179.653373,13.4013054 172.021582,34.8433939 171.20999,37.0040772 C170.261767,39.5921679 168.963548,41.0097881 167.430872,42.1419245 C166.170631,43.0448603 164.261277,44 161.091676,44 L11,44 C13.098517,38.0334411 21.7674301,13.4200648 22.6113644,11.3637843 C23.4779332,9.11827095 24.7939511,7.1353994 26.1560474,6.07830234 C28.2028306,4.55465051 30.4727201,3.97553091 33.0869754,4.00244724 L33.5461258,4 L183,4 Z"/>
      <path fill="#234AA3" fill-rule="nonzero" d="M159.373587,35.9484081 C159.140321,36.4264509 158.28804,37.3488625 157.239583,37.0235961 C156.661778,36.8412501 156.16475,36.0962557 156.368341,35.5286817 C156.745028,34.2785394 159.422219,26.855717 159.422219,26.855717 L150.859001,26.8516091 L146,40.8323413 C149.122289,42.0594864 154.255769,41.9995248 156.275201,41.9995248 C158.296281,42.0019892 161.214979,41.9116371 163.185781,41.0500064 C165.12691,40.2417701 167.657382,38.6934631 169.249022,34.2210422 C170.87775,29.7806535 171.679757,27.9604728 171.518207,26.3784934 C171.322863,24.8893305 170.285942,23.8749234 169.272098,23.0995402 C168.328326,22.2937649 165.018932,19.3417182 165.018932,19.3417182 C165.018932,19.3417182 164.039712,18.6246532 163.844362,17.2250197 C163.738857,15.7637828 165.279396,12.4831861 165.617336,11.5591294 C165.993204,10.5455449 167.079568,10.4272668 167.657382,10.6662891 C168.860797,11.2921811 168.55912,12.0076061 168.082693,13.4088813 C167.541157,14.8692973 165.986604,18.8940675 165.986604,18.8940675 L174.423715,18.8973512 L179,5.95731029 C176.995404,5.26981308 173.020819,5.00040041 170.204341,5.00040041 C167.476875,4.99875859 164.240006,4.97082921 162.360698,5.89488426 C160.417921,6.78608447 158.173466,8.42638198 156.393895,12.7205632 C154.548379,16.9219296 154.169221,18.2936371 154.338195,19.4871031 C154.656357,21.1873639 156.735137,23.2457443 158.124836,24.3505035 C159.890396,25.7517804 162.047481,27.033955 161.928787,28.3153104 C161.538913,31.834931 159.373587,35.9484081 159.373587,35.9484081"/>
      <polygon fill="#234AA3" fill-rule="nonzero" points="43.263 40 38 39.998 50.227 8 59.483 8.002 56.762 27.192 63.737 8.004 69 8.005 56.801 39.977 47.717 39.974 50.199 21.155"/>
      <polygon fill="#234AA3" fill-rule="nonzero" points="58 39.995 65.964 40 78 8 69.725 8.024"/>
      <path fill="#234AA3" fill-rule="nonzero" d="M86.0566895,20.3365237 L93.4733298,20.3381526 L98,8.24742244 C96.2480306,7.12855942 93.4708769,7.07477502 90.3217499,7.02099229 C87.1178446,6.96476292 84.7126676,6.93868766 82.4840792,8.08444038 C80.0257631,9.41599602 79.1101284,10.9048243 78.7168965,11.9454583 C78.2966848,12.9836455 71.2912619,31.6270184 70.9601634,32.5046719 C70.5988152,33.4621834 69.3349103,36.5775613 70.4500232,38.1796628 C71.2021521,39.2178501 74.9121072,39.8583662 75.9986062,39.9357826 C78.0309863,40.0433497 80.720666,40.0710572 82.7922867,39.5658156 C84.0864396,39.246372 87.3810887,37.7306523 88.6212854,34.3210932 C89.2589573,32.5372693 91.8856849,25.4777528 91.8856849,25.4777528 L84.1829096,25.4777528 C84.1829096,25.4777528 81.2814907,33.3317987 80.8620978,34.3455413 C80.6495383,34.9583466 79.8663443,35.4635882 79.1804358,35.2508989 C78.2999547,34.9860558 78.001557,34.2135244 78.2394588,33.5990885 C78.5730119,32.8021125 85.4876875,14.1562913 85.8523073,13.1694418 C86.0951131,12.5044809 86.5987118,11.6545348 87.7931247,12.0000554 C88.8444701,12.3724674 88.7120293,13.3340527 88.5011073,13.916709 C88.2615714,14.583302 86.0566895,20.3365237 86.0566895,20.3365237"/>
      <polygon fill="#234AA3" fill-rule="nonzero" points="135 8.002 133.249 12.666 126.655 12.612 123.556 21.431 128.77 21.432 126.903 26.147 121.831 26.171 118.671 35.232 125.154 35.204 123.397 40 109 39.998 120.575 8"/>
      <path fill="#234AA3" d="M144.713451,17.1496216 C144.502421,17.8937758 143.931018,19.3182537 143.637202,19.8482928 C143.341759,20.4550892 142.929438,21.1693486 141.734686,21.19601 C140.792361,21.1927799 140.367865,21.1693486 140.367865,21.1693486 L143.612851,12.443109 C143.612851,12.443109 144.323047,12.4156367 144.436677,12.443109 C145.234532,12.4148292 145.648474,12.9998094 145.7199,13.7924429 C145.762106,14.400856 145.284854,15.6702008 145.010516,16.5428251 C144.866042,16.7795641 144.773512,16.9928734 144.713451,17.1496216 M153.29586,9.03745098 C152.821043,8.47994138 152.46148,8.03070064 149.360159,8.00403925 C147.338334,8.00242421 137.66263,8 137.66263,8 L126,39.9655043 L133.85517,39.9655043 C133.85517,39.9655043 137.801422,28.7038084 138.765664,26.0366503 C138.765664,26.0366503 139.194216,25.8209185 139.561895,25.9243405 C140.187679,26.0859371 140.491237,26.5367913 140.475816,27.381945 C140.431176,28.2279063 140.250988,28.6246251 139.831365,29.7881236 C139.347618,31.0017182 137.842817,35.4706826 137.540882,36.3683533 C137.240571,37.2167404 136.799032,37.9827092 136.777117,39.0944967 C136.780365,40.1513414 137.215408,39.9913598 137.215408,39.9913598 L145.101421,39.9671193 C145.101421,39.9671193 144.855491,39.3853709 144.870912,38.3826631 C144.893638,37.2991521 145.881419,34.732186 146.424414,33.2511486 C147.023413,31.7216319 147.926782,29.0504346 148.093171,27.8861269 C148.286345,26.8284747 148.352087,26.2717726 148.105344,25.796678 C147.833443,25.1616018 147.395149,24.2914034 146.352177,23.8405459 C146.352177,23.8405459 147.61105,23.4187791 148.214917,23.0196343 C148.762783,22.7287585 150.273268,21.2501453 150.59793,20.5633597 C151.368188,19.0289945 151.992346,17.6303721 152.379504,16.6777587 C152.948473,15.3558953 153.887556,12.4463407 153.987388,11.6545164 C154.058812,10.8319864 153.82668,9.59092132 153.29586,9.03745098"/>
      <path fill="#234AA3" fill-rule="nonzero" d="M28.3724496 35.9464675C28.1383384 36.4269508 27.2876194 37.3493165 26.235759 37.0240662 25.6595476 36.8409068 25.1641173 36.0959495 25.3652554 35.5292263 25.7419798 34.2775044 28.4194387 26.8558706 28.4194387 26.8558706L19.8586636 26.8534063 15 40.835907C18.120128 42.0572417 23.2532959 41.9989248 25.2712823 41.9997473 27.2942137 41.9989248 30.2140292 41.9126849 32.1866743 41.0469911 34.1247002 40.240435 36.6587221 38.6938502 38.2496996 34.2232952 39.877773 29.7806649 40.6815047 27.9597523 40.5199342 26.3803142 40.3245632 24.8879386 39.284247 23.8744062 38.2719558 23.0998808 37.3264382 22.2925039 34.0183591 19.3422475 34.0183591 19.3422475 34.0183591 19.3422475 33.0357456 18.6243973 32.8395525 17.2264752 32.7356863 15.7644885 34.2780271 12.4840551 34.6151823 11.5608669 34.9902573 10.5456911 36.0816835 10.4265963 36.6521278 10.6672484 37.8622582 11.293111 37.5605511 12.0076761 37.0807844 13.408885 36.5391923 14.8692266 34.9861362 18.8954383 34.9861362 18.8954383L43.4224367 18.8970817 48 5.95768313C45.9943783 5.2726861 42.0235296 5.00246428 39.202637 5 36.4757175 5.00082255 33.2360598 4.97043027 31.3590371 5.89361847 29.4177157 6.78805948 27.1738601 8.42745281 25.3908121 12.7206011 23.5451115 16.9242211 23.1675649 18.2942168 23.3349059 19.488446 23.6563992 21.1894414 25.73209 23.2436167 27.1219261 24.3491401 28.8901378 25.7528099 31.0457875 27.0341015 30.9254339 28.3153931 30.5379924 31.8340143 28.3724496 35.9464675 28.3724496 35.9464675M103.146899 21.2398394L108.13164 8.02355962 100.160124 8.00649886 89 39.9715671 96.9430314 39.9894398 101.73164 25.7381524 102.545474 40 109.762565 39.9975625C109.762565 39.9975625 110.002646 24.3351189 106.893795 24.0556513L121 8.00325109 114.020549 8 103.146899 21.2398394z"/>
    </g>
  </g>
</svg>
