<svg xmlns="http://www.w3.org/2000/svg" width="263" height="100" viewBox="0 0 263 100">
  <g fill="none" fill-rule="evenodd">
    <rect width="263" height="100" fill="#FFF"/>
    <g transform="translate(63 11)">
      <rect width="138" height="79" fill="#E3081B"/>
      <path fill="#FFF" fill-rule="nonzero" d="M3,56.0233894 L3,40.0467788 L11.8467432,40.0467788 C16.82208,40.0467788 21.1905294,40.3148348 21.8293018,40.6593243 C22.8872832,41.2298954 22.9651176,41.9974303 22.9651176,51.8598586 C22.9651176,64.6676419 23.1513657,64.3075582 16.526695,64.3075582 C11.3108261,64.3075582 11.2209302,64.3885833 11.2209302,69.0897656 L11.2209302,72 L7.11046503,72 L3,72 L3,56.0233894 Z M14.1569767,52.2404771 C14.1569767,45.7780842 13.9960701,44.2532598 13.28512,43.9783442 C11.7892508,43.3999089 11.2209302,45.633206 11.2209302,52.0898724 C11.2209302,59.0851373 11.465002,60.1654748 13.045383,60.1654748 C14.0807028,60.1654748 14.1569767,59.6216884 14.1569767,52.2404771 Z M26.5090335,70.855449 C26.1363888,70.1538033 25.9011639,63.9713662 25.9011639,54.8788384 L25.9011639,40.0467788 L30.3052324,40.0467788 L34.7093028,40.0467788 L34.7093028,52.9516627 C34.7093028,62.8433642 34.8941659,66.111307 35.5010348,66.9476335 C37.3220732,69.4572112 37.6453492,67.4481764 37.6453492,53.6215621 L37.6453492,40.0467788 L42.0494196,40.0467788 L46.4534881,40.0467788 L46.4534881,55.3133177 C46.4534881,66.3983237 46.2604841,70.7743453 45.7488368,71.2899283 C45.2623239,71.7801856 42.2693196,72 36.0805453,72 C27.8194368,72 27.0692599,71.9102959 26.5090335,70.855449 Z M49.3895344,56.7334611 C49.3895344,45.6484551 49.5825403,41.2724335 50.0941857,40.7568505 C51.0956182,39.7477165 78.8055438,39.7477165 79.8069763,40.7568505 C80.3186236,41.2724335 80.5116276,45.6484551 80.5116276,56.7334611 L80.5116276,72 L76.1075591,72 L71.7034887,72 L71.7034887,58.0510438 C71.7034887,45.0849583 71.6310803,44.1161174 70.6758716,44.3011928 C69.7378237,44.4829438 69.6345145,45.6987366 69.4906319,58.250149 L69.3330073,72 L64.9397604,72 L60.5465115,72 L60.5465115,58.4627491 C60.5465115,47.9523594 60.3727021,44.7801388 59.7691684,44.2753973 C57.9152029,42.724906 57.6104652,44.7341728 57.6104652,58.5086402 L57.6104652,72 L53.5000008,72 L49.3895344,72 L49.3895344,56.7334611 Z M84.0348839,56.6359349 C84.0348839,42.0515403 84.0925249,41.2407869 85.1706998,40.6593243 C86.8129822,39.7736404 102.402891,39.8575278 103.295349,40.7568505 C103.806996,41.2724335 104,45.6484551 104,56.7334611 L104,72 L99.6227591,72 L95.24552,72 L95.0718876,68.0058488 C94.9380807,64.9277379 94.6962445,64.0116957 94.017441,64.0116957 C93.3386394,64.0116957 93.0968032,64.9277379 92.9629964,68.0058488 L92.7893639,72 L88.4121249,72 L84.0348839,72 L84.0348839,56.6359349 Z M94.8982551,52.127859 C94.8982551,45.7284488 94.7549242,44.4847267 94.017441,44.4847267 C93.2929616,44.4847267 93.1070921,45.738882 92.9702184,51.5509939 C92.7937797,59.0428006 92.9870653,60.4129538 94.164556,60.017439 C94.7008601,59.8372946 94.8982551,57.7146696 94.8982551,52.127859 Z"/>
      <path fill="#FFF" fill-rule="nonzero" d="M121.90027,57.8052112 C121.529538,57.3578348 120.881141,55.8014932 120.75251,54.1705391 C120.526546,51.3054305 121.115451,51.514142 117.610101,47.9890233 C114.783416,45.1463926 112.944641,43.2790239 111.673833,39.5345073 C109.672597,33.6377402 107.053864,32.0920793 103.847132,32.0920793 C100.877446,32.0920793 96.1491749,31.1382472 93.6199258,30.028949 C92.4211992,29.5032015 90.0948357,27.8581295 88.4502357,26.3732314 L85.4600498,23.6734192 L84.0864887,24.7554821 C82.2629194,26.1920499 79.6953154,26.1202603 75.8274699,24.5245571 C72.2270964,23.0392006 71.5476956,23.1304741 71.5476956,24.1746915 C71.5476956,25.4056085 70.5931724,25.4613991 69.2308326,24.5674243 C66.3639677,22.6861679 68.7850275,19.6238483 73.6036793,19.864035 C76.4727474,20.0056323 76.6081159,20.0307276 76.6081159,18.8569536 C76.6081159,17.4690108 75.7530867,16.9769506 73.3413316,16.9769506 C72.3060854,16.9769506 71.4036359,16.632491 70.5027115,15.7680569 C69.9499956,15.4346204 69.4564169,15.1748871 69.1405616,14.4150551 C69.4036576,13.4505366 69.6738855,12.8365665 70.1869588,12.3727497 C70.6858878,11.3983457 71.2779805,10.3467802 72.3303245,9.68137747 C72.9361113,9.2983324 73.526337,8.10535414 73.9878722,7.63486454 C74.3961561,7.218659 74.3789407,7.08835105 75.0818379,7.66944023 C75.8043551,8.266753 76.0852079,8.2699981 76.7840823,7.68911625 C77.4886263,7.10352083 77.7156085,7.12297048 78.2187161,7.81203999 C78.5474336,8.26226199 79.7368479,9.48093282 81.3755752,9.86674364 C85.9426124,10.9419759 89.9800502,13.3573836 97.3347297,19.4333748 C106.704622,27.1742034 107.638188,26.84059 112.087416,27.2877552 C117.309121,27.8125574 119.27316,25.8686492 123.018695,17.5955163 C125.477884,12.1636578 127.070925,10.0806138 130.043489,8.20130705 C132.568457,6.60497237 134.772204,6.54538509 134.947665,8.349347 C135.115955,10.0794459 135.097028,10.9064434 131.375694,13.1556817 C127.23714,15.6570959 126.010805,16.9328166 123.407853,22.3320757 C122.067477,25.1123914 120.440098,27.5957293 119.256969,28.6662195 L117.310846,30.4270554 L118.603862,33.043684 C119.561006,34.980615 119.960525,36.7876964 120.141901,40.0004279 C120.478516,45.9630595 120.078478,45.4034933 122.088835,47.3141211 C123.023669,48.2025834 123.390506,47.4918311 123.770621,49.281289 C124.131327,50.9793667 124.224934,51.8251881 125.01183,53.9607852 C125.504117,55.2968274 125.053137,54.525628 124.866893,56.413582 C124.725173,57.8501917 125.062227,57.3130616 124.435435,58.8107708 C124.162134,59.4638228 122.271006,58.2525875 121.90027,57.8052112 Z"/>
    </g>
  </g>
</svg>
